HIERARCHY
ROOT hips
{
  OFFSET -0.00735851563513279 12.18665635585785 0.12248523347079754
  CHANNELS 6 Xposition Yposition Zposition Yrotation Xrotation Zrotation
  JOINT spine
  {
    OFFSET 1.0244548320770264e-7 0.5955291986465454 0
    CHANNELS 3 Yrotation Xrotation Zrotation
    JOINT chest
    {
      OFFSET 0 1.2719063864449713 0
      CHANNELS 3 Yrotation Xrotation Zrotation
      JOINT upperChest
      {
        OFFSET 0 1.490802666915459 0
        CHANNELS 3 Yrotation Xrotation Zrotation
        JOINT neck
        {
          OFFSET 0 1.3131953345263365 0
          CHANNELS 3 Yrotation Xrotation Zrotation
          JOINT head
          {
            OFFSET 0 0.8653679716847534 0
            CHANNELS 3 Yrotation Xrotation Zrotation
            JOINT leftEye
            {
              OFFSET 0.20629723300226033 0.6721053123474121 0.3036841657012701
              CHANNELS 3 Yrotation Xrotation Zrotation
              End Site
              {
                OFFSET 0.20629723300226033 0.6721053123474121 0.3036841657012701
              }
            }
            JOINT rightEye
            {
              OFFSET -0.20629652100615203 0.6721066236495972 0.30368443205952644
              CHANNELS 3 Yrotation Xrotation Zrotation
              End Site
              {
                OFFSET -0.20629652100615203 0.6721066236495972 0.30368443205952644
              }
            }
          }
        }
        JOINT leftShoulder
        {
          OFFSET 0.24624172446783632 0.959903359413147 0
          CHANNELS 3 Yrotation Xrotation Zrotation
          JOINT leftUpperArm
          {
            OFFSET 0.9650355761446514 0 0
            CHANNELS 3 Yrotation Xrotation Zrotation
            JOINT leftLowerArm
            {
              OFFSET 2.4419134471639827 0 0
              CHANNELS 3 Yrotation Xrotation Zrotation
              JOINT leftHand
              {
                OFFSET 2.3874557408809456 0 0
                CHANNELS 3 Yrotation Xrotation Zrotation
                JOINT leftIndexProximal
                {
                  OFFSET 0.7029628753662109 0.06118142604827881 0.23586585000157356
                  CHANNELS 3 Yrotation Xrotation Zrotation
                  JOINT leftIndexIntermediate
                  {
                    OFFSET 0.36102771759033203 -0.001475214958190918 0.056637559086084366
                    CHANNELS 3 Yrotation Xrotation Zrotation
                    JOINT leftIndexDistal
                    {
                      OFFSET 0.22344785928726196 -0.007408857345581055 0.02531452476978302
                      CHANNELS 3 Yrotation Xrotation Zrotation
                      End Site
                      {
                        OFFSET 0.22344785928726196 -0.007408857345581055 0.02531452476978302
                      }
                    }
                  }
                }
                JOINT leftLittleProximal
                {
                  OFFSET 0.6958752870559692 0.034375786781311035 -0.29472956992685795
                  CHANNELS 3 Yrotation Xrotation Zrotation
                  JOINT leftLittleIntermediate
                  {
                    OFFSET 0.34538060426712036 -0.0030041933059692383 0.00024324655532836914
                    CHANNELS 3 Yrotation Xrotation Zrotation
                    JOINT leftLittleDistal
                    {
                      OFFSET 0.19865047931671143 0.00746917724609375 -0.010377676226198673
                      CHANNELS 3 Yrotation Xrotation Zrotation
                      End Site
                      {
                        OFFSET 0.19865047931671143 0.00746917724609375 -0.010377676226198673
                      }
                    }
                  }
                }
                JOINT leftMiddleProximal
                {
                  OFFSET 0.7272291779518127 0.09209799766540527 0.05257739871740341
                  CHANNELS 3 Yrotation Xrotation Zrotation
                  JOINT leftMiddleIntermediate
                  {
                    OFFSET 0.40590834617614746 -0.014838695526123047 0.026817932724952698
                    CHANNELS 3 Yrotation Xrotation Zrotation
                    JOINT leftMiddleDistal
                    {
                      OFFSET 0.2495119571685791 -0.026458144187927246 0.010310646146535873
                      CHANNELS 3 Yrotation Xrotation Zrotation
                      End Site
                      {
                        OFFSET 0.2495119571685791 -0.026458144187927246 0.010310646146535873
                      }
                    }
                  }
                }
                JOINT leftRingProximal
                {
                  OFFSET 0.7334893345832825 0.09136629104614258 -0.1205735495314002
                  CHANNELS 3 Yrotation Xrotation Zrotation
                  JOINT leftRingIntermediate
                  {
                    OFFSET 0.3775520920753479 -0.005917906761169434 0.001896639820188284
                    CHANNELS 3 Yrotation Xrotation Zrotation
                    JOINT leftRingDistal
                    {
                      OFFSET 0.2177620530128479 0.007703900337219238 0.0027355607599020004
                      CHANNELS 3 Yrotation Xrotation Zrotation
                      End Site
                      {
                        OFFSET 0.2177620530128479 0.007703900337219238 0.0027355607599020004
                      }
                    }
                  }
                }
                JOINT leftThumbProximal
                {
                  OFFSET 0.02235114574432373 -0.07603192329406738 0.1950724683701992
                  CHANNELS 3 Yrotation Xrotation Zrotation
                  JOINT leftThumbIntermediate
                  {
                    OFFSET 0.3551589846611023 -0.02970755100250244 0.36741212010383606
                    CHANNELS 3 Yrotation Xrotation Zrotation
                    JOINT leftThumbDistal
                    {
                      OFFSET 0.23456048965454102 -0.016631245613098145 0.2093813568353653
                      CHANNELS 3 Yrotation Xrotation Zrotation
                      End Site
                      {
                        OFFSET 0.23456048965454102 -0.016631245613098145 0.2093813568353653
                      }
                    }
                  }
                }
              }
            }
          }
        }
        JOINT rightShoulder
        {
          OFFSET -0.24624088185373694 0.9600239992141724 0
          CHANNELS 3 Yrotation Xrotation Zrotation
          JOINT rightUpperArm
          {
            OFFSET -0.9650300767908009 0 0
            CHANNELS 3 Yrotation Xrotation Zrotation
            JOINT rightLowerArm
            {
              OFFSET -2.4420125187833426 0 0
              CHANNELS 3 Yrotation Xrotation Zrotation
              JOINT rightHand
              {
                OFFSET -2.3874255620910265 0 0
                CHANNELS 3 Yrotation Xrotation Zrotation
                JOINT rightIndexProximal
                {
                  OFFSET -0.7029609084129333 0.06117355823516846 0.23587234504520893
                  CHANNELS 3 Yrotation Xrotation Zrotation
                  JOINT rightIndexIntermediate
                  {
                    OFFSET -0.3610270619392395 -0.0014804601669311523 0.05664427950978279
                    CHANNELS 3 Yrotation Xrotation Zrotation
                    JOINT rightIndexDistal
                    {
                      OFFSET -0.2234485149383545 -0.0074127912521362305 0.025317884981632233
                      CHANNELS 3 Yrotation Xrotation Zrotation
                      End Site
                      {
                        OFFSET -0.2234485149383545 -0.0074127912521362305 0.025317884981632233
                      }
                    }
                  }
                }
                JOINT rightLittleProximal
                {
                  OFFSET -0.6958779096603394 0.034366607666015625 -0.29472311586141586
                  CHANNELS 3 Yrotation Xrotation Zrotation
                  JOINT rightLittleIntermediate
                  {
                    OFFSET -0.3453786373138428 -0.003008127212524414 0.00025422871112823486
                    CHANNELS 3 Yrotation Xrotation Zrotation
                    JOINT rightLittleDistal
                    {
                      OFFSET -0.19865179061889648 0.00746917724609375 -0.010371447540819645
                      CHANNELS 3 Yrotation Xrotation Zrotation
                      End Site
                      {
                        OFFSET -0.19865179061889648 0.00746917724609375 -0.010371447540819645
                      }
                    }
                  }
                }
                JOINT rightMiddleProximal
                {
                  OFFSET -0.7272304892539978 0.09209012985229492 0.05258418060839176
                  CHANNELS 3 Yrotation Xrotation Zrotation
                  JOINT rightMiddleIntermediate
                  {
                    OFFSET -0.4059063792228699 -0.014843940734863281 0.026821313425898552
                    CHANNELS 3 Yrotation Xrotation Zrotation
                    JOINT rightMiddleDistal
                    {
                      OFFSET -0.24951326847076416 -0.026460766792297363 0.010313207283616066
                      CHANNELS 3 Yrotation Xrotation Zrotation
                      End Site
                      {
                        OFFSET -0.24951326847076416 -0.026460766792297363 0.010313207283616066
                      }
                    }
                  }
                }
                JOINT rightRingProximal
                {
                  OFFSET -0.7334906458854675 0.09135580062866211 -0.12056719791144133
                  CHANNELS 3 Yrotation Xrotation Zrotation
                  JOINT rightRingIntermediate
                  {
                    OFFSET -0.37755340337753296 -0.005923151969909668 0.0019026175141334534
                    CHANNELS 3 Yrotation Xrotation Zrotation
                    JOINT rightRingDistal
                    {
                      OFFSET -0.21775943040847778 0.007701277732849121 0.0027383523993194103
                      CHANNELS 3 Yrotation Xrotation Zrotation
                      End Site
                      {
                        OFFSET -0.21775943040847778 0.007701277732849121 0.0027383523993194103
                      }
                    }
                  }
                }
                JOINT rightThumbProximal
                {
                  OFFSET -0.022347867488861084 -0.07603061199188232 0.19507363624870777
                  CHANNELS 3 Yrotation Xrotation Zrotation
                  JOINT rightThumbIntermediate
                  {
                    OFFSET -0.3550455570220947 -0.029461026191711426 0.36754218488931656
                    CHANNELS 3 Yrotation Xrotation Zrotation
                    JOINT rightThumbDistal
                    {
                      OFFSET -0.23451131582260132 -0.016489624977111816 0.20944765955209732
                      CHANNELS 3 Yrotation Xrotation Zrotation
                      End Site
                      {
                        OFFSET -0.23451131582260132 -0.016489624977111816 0.20944765955209732
                      }
                    }
                  }
                }
              }
            }
          }
        }
      }
    }
  }
  JOINT leftUpperLeg
  {
    OFFSET 0.8483456987887621 -0.42556869983673096 0
    CHANNELS 3 Yrotation Xrotation Zrotation
    JOINT leftLowerLeg
    {
      OFFSET 0 -4.6702112872869534 0
      CHANNELS 3 Yrotation Xrotation Zrotation
      JOINT leftFoot
      {
        OFFSET -0.13096565008163452 -5.202569782733917 -0.2985280640423298
        CHANNELS 3 Yrotation Xrotation Zrotation
        JOINT leftToes
        {
          OFFSET 0.01423943042755127 -0.7568342834711075 1.213271364569664
          CHANNELS 3 Yrotation Xrotation Zrotation
          End Site
          {
            OFFSET 0.01423943042755127 -0.7568342834711075 1.213271364569664
          }
        }
      }
    }
  }
  JOINT rightUpperLeg
  {
    OFFSET -0.8483468051999807 -0.42556607723236084 0
    CHANNELS 3 Yrotation Xrotation Zrotation
    JOINT rightLowerLeg
    {
      OFFSET 0 -4.670219469177788 0
      CHANNELS 3 Yrotation Xrotation Zrotation
      JOINT rightFoot
      {
        OFFSET 0.13097601756453514 -5.202573716640472 -0.29853164963424206
        CHANNELS 3 Yrotation Xrotation Zrotation
        JOINT rightToes
        {
          OFFSET -0.014232628047466278 -0.7568355947732925 1.213272675871849
          CHANNELS 3 Yrotation Xrotation Zrotation
          End Site
          {
            OFFSET -0.014232628047466278 -0.7568355947732925 1.213272675871849
          }
        }
      }
    }
  }
}
MOTION
Frames: 6
Frame Time: 0.03333333333333333
0 11.682718080999717 0 0 0 0 0 -4.610651315171937 0 0 3.0831277533083026 0 0 0 0 0 1.5275236235667615 0 0 0 0 0 0 0 0 0 0 0 1.5275236235667615 0 0 0 0 0 0 0 0 0 0 0 0 0 0 0 0 0 0 0 0 0 0 0 0 0 0 0 0 0 0 0 0 0 0 0 0 0 0 0 0 0 0 0 0 0 0 0 0 0 0 0 0 0 0 0 0 1.5275236235667615 0 0 0 0 0 0 0 0 0 0 0 0 0 0 0 0 0 0 0 0 0 0 0 0 0 0 0 0 0 0 0 0 0 0 0 0 0 0 0 0 0 0 0 0 0 0 0 0 0 0 0 0 0 0 0 0 0 -5.826343164929014 -0.3712483961610101 -3.6333298826370974 5.838118207697276 0 0 0 0 0 0 0 0 5.826343164929014 0.3712483961610101 -3.6333298826370974 -5.838118207697276 0 0 0 0 0 0
0 7.9674069015371956 0 -10.44957068970795 12.315333384294778 10.44957068970795 -0.27673575809356055 -6.07335324877398 -0.7894773684740358 0 -0.5835389222172743 0 0 0 0 0.04024861703804398 -3.972395853211345 0.16129849904492516 0 -2.1666666679021356 0 0 0 0 0 0 0 0 1.3608569093110725 0 -9.026029825841631 -8.691767351632702 -10.685744447522472 -14.125061920812504 2.9602172766657824 2.1460180185288364 -1.785513062748353 -1.0438169390023129 -8.618741470219504 0 0 0 0 0 0 0 0 0 0 0 0 0 0 0 0 0 0 0 0 0 0 0 0 0 0 0 0 0 0 0 0 0 0 0 0 0 0 0 0 0 0 0 0 0 0 1.6941902414856447 0 9.026029825841631 -8.691767351632702 10.685744447522472 14.453261850329154 2.9416292418439216 -2.1987013010405017 2.0533384513306414 -1.2855921608563419 9.097889495129108 0 0 0 0 0 0 0 0 0 0 0 0 0 0 0 0 0 0 0 0 0 0 0 0 0 0 0 0 0 0 0 0 0 0 0 0 0 0 0 0 0 0 0 0 0 0.4999999975737198 3.1060104311167156e-18 -5.826343164929014 -0.3818297025889615 -3.6322348520579535 6.005116854945847 -0.1763115849184405 5.998573277880171 0.6359370506495602 0 0 0 0 -0.16666666918945963 5.8263432256028285 0.23998000279011433 -2.1389214263450635 -5.996669912620854 0.20645106727866977 6.998304412327835 -0.6247078231924171 0 0 0
0 4.2520957220746745 0 -19.138855043837733 26.18390851567248 19.138855043837733 -0.3837668609126858 -7.7111909795264495 -1.2081484959644497 0 -4.250205393855591 0 0 0 0 0.06528217806918646 -9.47240577495781 0.32052287930211915 0 -4.333333518954436 0 0 0 0 0 0 0 0 1.194190289789277 0 -16.576740991066323 -18.829410761993717 -20.25327383580087 -28.19475968514412 6.353698187890732 3.5103094517662012 -3.3954253884531385 -2.3429762390544604 -17.20616768843439 0 0 0 0 0 0 0 0 0 0 0 0 0 0 0 0 0 0 0 0 0 0 0 0 0 0 0 0 0 0 0 0 0 0 0 0 0 0 0 0 0 0 0 0 0 0 1.8608569989354904 0 16.576740991066323 -18.829410761993717 20.25327383580087 28.849631819800752 6.337941300434295 -3.59930945465204 3.8792511691560856 -2.878984335922803 18.152462354591552 0 0 0 0 0 0 0 0 0 0 0 0 0 0 0 0 0 0 0 0 0 0 0 0 0 0 0 0 0 0 0 0 0 0 0 0 0 0 0 0 0 0 0 0 0 0.9999999465488009 1.2424041724466862e-17 -5.826343164929014 -0.39240772148794933 -3.631108597383316 6.172115303837111 -0.28762225007682296 11.998721819965679 1.263677909356233 0 0 0 6.2121260193578014e-18 -0.3333333345791665 5.826343251619374 0.10466008193938126 -0.6448852327482476 -6.158543857985497 0.3391804019818137 13.998423565725435 -1.2378101806324182 0 0 0
0 0.5367845426121534 0 -26.566797284101114 41.06453594797845 26.566797284101114 -0.24323730940021315 -9.401627128264208 -1.2848420834580014 0 -7.916871934007654 0 0 0 0 0.07504476622675363 -14.972464928424456 0.48061179980705654 0 -6.499999933736679 0 0 0 0 0 0 0 0 1.027523635710024 0 -22.753833886027866 -30.00621895489539 -29.058585054454642 -42.30452009803249 9.976031655243883 4.008273014070379 -4.795042403487379 -3.8675072614695014 -25.76534712163268 0 0 0 0 0 0 0 0 0 0 0 0 0 0 0 0 0 0 0 0 0 0 0 0 0 0 0 0 0 0 0 0 0 0 0 0 0 0 0 0 0 0 0 0 0 0 2.0275235978081767 0 22.753833886027866 -30.00621895489539 29.058585054454642 43.2867081135969 9.974786817061128 -4.111111640764067 5.4345073328775975 -4.73917399053954 27.170052313198752 0 0 0 0 0 0 0 0 0 0 0 0 0 0 0 0 0 0 0 0 0 0 0 0 0 0 0 0 0 0 0 0 0 0 0 0 0 0 0 0 0 0 0 0 0 1.4999999762315532 2.4848083448933725e-17 -5.826343164929014 -0.4029824254279793 -3.6299519742195736 6.339112958033779 -0.33310312944519677 17.99971502267755 1.8970660589796795 0 0 0 3.1061287353849514e-18 -0.4999999923571127 5.826342896285879 -0.034886556685734524 0.8487585125802183 -6.323954010900061 0.39708808906805637 20.999539095945995 -1.8576973250262463 0 0 0
0 -3.1785266368503677 0 -33.14624771450083 56.58831421193592 33.14624771450083 0.1974386839533899 -11.019630189009577 -1.0909625845437785 0 -11.583539160306811 0 0 0 0 0.06873324824618035 -20.47252674075044 0.6446934648420396 0 -8.666666692494793 0 0 0 0 0 0 0 0 0.8608569778266877 0 -27.544583591691406 -41.901270800099375 -37.602587366691495 -56.57063947184714 13.608702422283274 3.589625522901503 -5.954386162888177 -5.582851001248436 -34.30483844844659 0 0 0 0 0 0 0 0 0 0 0 0 0 0 0 0 0 0 0 0 0 0 0 0 0 0 0 0 0 0 0 0 0 0 0 0 0 0 0 0 0 0 0 0 0 0 2.1941902737415595 0 27.544583591691406 -41.901270800099375 37.602587366691495 57.88442777311779 13.622525886842217 -3.680969978383915 6.6823511178058945 -6.819339673973966 36.16530364985397 0 0 0 0 0 0 0 0 0 0 0 0 0 0 0 0 0 0 0 0 0 0 0 0 0 0 0 0 0 0 0 0 0 0 0 0 0 0 0 0 0 0 0 0 0 1.9999999065344156 2.4848083448933725e-17 -5.826343164929014 -0.41355368004735726 -3.628764127194114 6.50611030672552 -0.3079653292519179 24.000824234993182 2.551262099358927 0 0 0 6.2124415120932014e-18 -0.6666666920512435 5.826343355692165 -0.17884912887593188 2.341988451288828 -6.493124081502661 0.3727406937470875 28.000838105933205 -2.505144791993886 0 0 0
0 -6.893837816312889 0 -39.20335698268848 72.4949095696032 39.20335698268848 0.9635419112534227 -12.451456862860983 -0.7298003268671612 0 -15.250205305966878 0 0 0 0 0.044662674836670496 -25.972549213341644 0.8163536494191486 0 -10.833333478098652 0 0 0 0 0 0 0 0 0.6941902934476922 0 -30.552058763960613 -54.247346361536955 -46.724810845773725 -71.1074722318101 17.02542735024897 2.2414309587970602 -6.8481508664548345 -7.450684837726926 -42.838392084632005 0 0 0 0 0 0 0 0 0 0 0 0 0 0 0 0 0 0 0 0 0 0 0 0 0 0 0 0 0 0 0 0 0 0 0 0 0 0 0 0 0 0 0 0 0 0 2.360856941892127 0 30.552058763960613 -54.247346361536955 46.724810845773725 72.76036331706108 17.043300596709663 -2.296717063969935 7.59209769347416 -9.068009812128167 45.160479534241354 0 0 0 0 0 0 0 0 0 0 0 0 0 0 0 0 0 0 0 0 0 0 0 0 0 0 0 0 0 0 0 0 0 0 0 0 0 0 0 0 0 0 0 0 0 2.4999999419870087 2.4848083448933725e-17 -5.826343164929014 -0.4241214044536923 -3.627545911917283 6.673107057910847 -0.2024749822880332 30.001242182414448 3.2443961006557367 0 0 0 6.212677782331847e-18 -0.8333333230613671 5.826343087038099 -0.3274319072490437 3.8347820722231525 -6.666291639800385 0.25015704608855005 35.00139345714784 -3.206648195587271 0 0 0
